<svg width="220" height="50" viewBox="0 0 220 50" fill="none" xmlns="http://www.w3.org/2000/svg">
<g clip-path="url(#clip0_4001_17723)">
<path d="M25.0425 0C11.2342 0 0 11.2148 0 24.9994C0 38.7839 11.2342 49.9987 25.0425 49.9987C38.8508 49.9987 50.085 38.7839 50.085 24.9994C50.085 11.2148 38.8521 0 25.0425 0ZM25.0425 46.1533C13.3581 46.1533 3.85209 36.6636 3.85209 24.9994C3.85209 13.3351 13.3581 3.84675 25.0425 3.84675C36.7268 3.84675 46.2329 13.3364 46.2329 25.0006C46.2329 36.6649 36.7268 46.1545 25.0425 46.1545V46.1533Z" fill="#D1D3D4"/>
<path d="M36.6015 23.0768H25.0439C22.5332 23.0768 20.3976 21.4679 19.6021 19.2313H40.4549V15.3846H34.4814C33.5863 11.0007 29.6954 7.69238 25.0439 7.69238C20.3924 7.69238 16.5002 11.0007 15.6051 15.3846H13.5872C10.3534 15.3846 7.65128 18.0266 7.7069 21.2535C7.76123 24.3888 10.3314 26.9223 13.485 26.9223H25.0439C27.5546 26.9223 29.6902 28.5312 30.4857 30.769H9.63165V34.6158H15.6051C16.5002 38.9997 20.3911 42.308 25.0439 42.308C29.6967 42.308 33.5863 38.9997 34.4814 34.6158H36.4993C39.7331 34.6158 42.4352 31.9738 42.3796 28.7469C42.3253 25.6116 39.7551 23.0781 36.6015 23.0781V23.0768ZM25.0439 11.5378C27.5546 11.5378 29.6902 13.1468 30.4857 15.3833H19.6021C20.3976 13.1468 22.5332 11.5378 25.0439 11.5378ZM13.5407 23.0768C12.5046 23.0768 11.612 22.284 11.5603 21.2509C11.506 20.1469 12.3894 19.2313 13.4837 19.2313H15.6038C15.8936 20.6518 16.4989 21.9585 17.3423 23.0768H13.5407ZM25.0439 38.4612C22.5332 38.4612 20.3976 36.8523 19.6021 34.6145H30.4857C29.6902 36.851 27.5546 38.4612 25.0439 38.4612ZM36.6015 30.769H34.4814C34.1916 29.3486 33.5863 28.0418 32.7429 26.9223H36.5446C37.5807 26.9223 38.4732 27.7151 38.5249 28.7481C38.5793 29.8522 37.6958 30.7677 36.6015 30.7677V30.769Z" fill="#D1D3D4"/>
<path d="M55.8643 21.3305H59.7927V30.7646H62.2025V21.3305H66.1154V19.2334H55.8643V21.3305Z" fill="#D1D3D4"/>
<path d="M74.7553 23.7968H70.0132V19.2334H67.5879V30.7646H70.0132V25.9094H74.7553V30.7646H77.1651V19.2334H74.7553V23.7968Z" fill="#D1D3D4"/>
<path d="M81.939 25.8784H86.3525V23.8278H81.939V21.3305H87.0251V19.2334H79.5137V30.7646H87.0406V28.6534H81.939V25.8784Z" fill="#D1D3D4"/>
<path d="M97.0263 24.0127C95.4146 23.6421 94.7406 23.3954 94.7406 22.5174C94.7406 21.7 95.3667 21.1305 96.4778 21.1305C97.589 21.1305 98.215 21.7103 98.2862 22.6103H100.766C100.704 20.3906 98.9666 19.0645 96.4313 19.0645C93.6295 19.0645 92.2687 20.6979 92.2687 22.5948C92.2687 24.8301 94.0215 25.4318 96.1338 25.9561C97.6989 26.3409 98.5436 26.665 98.5436 27.5443C98.5436 28.4844 97.7765 28.8705 96.6964 28.8705C95.4792 28.8705 94.5828 28.2158 94.4703 27.237H92.001C92.032 29.6259 93.9891 30.9366 96.6964 30.9366C99.0442 30.9366 101 29.857 101 27.4062C101 25.3556 99.4193 24.6157 97.025 24.0153L97.0263 24.0127Z" fill="#D1D3D4"/>
<path d="M106.558 19.2334L101.534 30.7646H104.179L105.15 28.5449H110.017L110.972 30.7646H113.632L108.593 19.2334H106.558ZM106.011 26.6015L107.592 22.9174L109.172 26.6015H106.011Z" fill="#D1D3D4"/>
<path d="M121.395 27.158L117.076 19.2334H114.932V30.7646H117.358V24.5367L120.597 30.6419H122.193L125.418 24.5367V30.7646H127.812V19.2334H125.683L121.395 27.158Z" fill="#D1D3D4"/>
<path d="M135.246 19.2334H130.176V30.7646H132.601V26.6635H135.246C137.469 26.6635 139.018 25.3218 139.018 22.9484C139.018 20.575 137.469 19.2334 135.246 19.2334ZM134.933 24.5522H132.586V21.3305H134.933C135.872 21.3305 136.561 21.9012 136.561 22.9497C136.561 23.9983 135.872 24.5535 134.933 24.5535V24.5522Z" fill="#D1D3D4"/>
<path d="M143.041 19.2334H140.615V30.7646H148.142V28.6534H143.041V19.2334Z" fill="#D1D3D4"/>
<path d="M152.291 25.8784H156.704V23.8278H152.291V21.3305H157.377V19.2334H149.865V30.7646H157.392V28.6534H152.291V25.8784Z" fill="#D1D3D4"/>
<path d="M167.379 24.0127C165.767 23.6421 165.093 23.3954 165.093 22.5174C165.093 21.7 165.719 21.1305 166.83 21.1305C167.942 21.1305 168.568 21.7103 168.639 22.6103H171.118C171.056 20.3906 169.319 19.0645 166.784 19.0645C163.982 19.0645 162.621 20.6979 162.621 22.5948C162.621 24.8301 164.374 25.4318 166.486 25.9561C168.051 26.3409 168.896 26.665 168.896 27.5443C168.896 28.4844 168.129 28.8705 167.049 28.8705C165.832 28.8705 164.935 28.2158 164.823 27.237H162.354C162.385 29.6259 164.342 30.9366 167.049 30.9366C169.397 30.9366 171.353 29.857 171.353 27.4062C171.353 25.3556 169.772 24.6157 167.378 24.0153L167.379 24.0127Z" fill="#D1D3D4"/>
<path d="M182.575 19.2334H172.325V21.3305H176.254V30.7646H178.663V21.3305H182.575V19.2334Z" fill="#D1D3D4"/>
<path d="M185.753 19.2334L180.729 30.7646H183.374L184.344 28.5449H189.211L190.166 30.7646H192.827L187.787 19.2334H185.753ZM185.205 26.6015L186.786 22.9174L188.367 26.6015H185.205Z" fill="#D1D3D4"/>
<path d="M198.415 24.0127C196.803 23.6421 196.129 23.3954 196.129 22.5174C196.129 21.7 196.755 21.1305 197.867 21.1305C198.978 21.1305 199.604 21.7103 199.675 22.6103H202.155C202.092 20.3906 200.355 19.0645 197.82 19.0645C195.018 19.0645 193.657 20.6979 193.657 22.5948C193.657 24.8301 195.41 25.4318 197.522 25.9561C199.088 26.3409 199.932 26.665 199.932 27.5443C199.932 28.4844 199.165 28.8705 198.085 28.8705C196.868 28.8705 195.972 28.2158 195.859 27.237H193.39C193.421 29.6259 195.378 30.9366 198.085 30.9366C200.433 30.9366 202.389 29.857 202.389 27.4062C202.389 25.3556 200.808 24.6157 198.414 24.0153L198.415 24.0127Z" fill="#D1D3D4"/>
<path d="M211.405 23.7968H206.663V19.2334H204.237V30.7646H206.663V25.9094H211.405V30.7646H213.814V19.2334H211.405V23.7968Z" fill="#D1D3D4"/>
<path d="M216.833 19.6621V21.1561H216.389V19.6621H215.724V19.2334H217.505V19.6621H216.835H216.833ZM219.554 21.1561V20.1864L218.996 21.1393H218.792L218.234 20.1864V21.1561H217.789V19.2334H218.165L218.894 20.4924L219.624 19.2334H219.999V21.1561H219.554Z" fill="#D1D3D4"/>
</g>
<defs>
<clipPath id="clip0_4001_17723">
<rect width="220" height="50" fill="white"/>
</clipPath>
</defs>
</svg>
