<svg width="362" height="18" viewBox="0 0 362 18" fill="none" xmlns="http://www.w3.org/2000/svg">
<path d="M1 10.8348V7.63477" stroke="#0169FF" stroke-width="1.5" stroke-linecap="round"/>
<path d="M4.56445 10.8348V7.63477" stroke="#0169FF" stroke-width="1.5" stroke-linecap="round"/>
<path d="M8.12891 11.9007V6.56738" stroke="#0169FF" stroke-width="1.5" stroke-linecap="round"/>
<path d="M11.6934 12.9676V5.50098" stroke="#0169FF" stroke-width="1.5" stroke-linecap="round"/>
<path d="M15.2578 15.1015V3.36816" stroke="#0169FF" stroke-width="1.5" stroke-linecap="round"/>
<path d="M18.8223 17.2344V1.23438" stroke="#0169FF" stroke-width="1.5" stroke-linecap="round"/>
<path d="M22.3857 16.1674V2.30078" stroke="#0169FF" stroke-width="1.5" stroke-linecap="round"/>
<path d="M25.9502 12.9676V5.50098" stroke="#0169FF" stroke-width="1.5" stroke-linecap="round"/>
<path d="M29.5146 9.76784V8.70117" stroke="#0169FF" stroke-width="1.5" stroke-linecap="round"/>
<path d="M33.0791 10.8348V7.63477" stroke="#0169FF" stroke-width="1.5" stroke-linecap="round"/>
<path d="M36.6436 16.1674V2.30078" stroke="#0169FF" stroke-width="1.5" stroke-linecap="round"/>
<path d="M40.208 17.2344V1.23438" stroke="#0169FF" stroke-width="1.5" stroke-linecap="round"/>
<path d="M43.7725 16.1674V2.30078" stroke="#0169FF" stroke-width="1.5" stroke-linecap="round"/>
<path d="M47.3369 14.0346V4.43457" stroke="#0169FF" stroke-width="1.5" stroke-linecap="round"/>
<path d="M50.9014 12.9676V5.50098" stroke="#0169FF" stroke-width="1.5" stroke-linecap="round"/>
<path d="M54.4658 15.1015V3.36816" stroke="#0169FF" stroke-width="1.5" stroke-linecap="round"/>
<path d="M58.0293 16.1674V2.30078" stroke="#0169FF" stroke-width="1.5" stroke-linecap="round"/>
<path d="M61.5938 14.0346V4.43457" stroke="#0169FF" stroke-width="1.5" stroke-linecap="round"/>
<path d="M65.1582 10.8348V7.63477" stroke="#0169FF" stroke-width="1.5" stroke-linecap="round"/>
<path d="M68.7227 9.76784V8.70117" stroke="#0169FF" stroke-width="1.5" stroke-linecap="round"/>
<path d="M72.2871 11.9007V6.56738" stroke="#0169FF" stroke-width="1.5" stroke-linecap="round"/>
<path d="M75.8516 12.9676V5.50098" stroke="#0169FF" stroke-width="1.5" stroke-linecap="round"/>
<path d="M79.416 14.0346V4.43457" stroke="#0169FF" stroke-width="1.5" stroke-linecap="round"/>
<path d="M82.9805 11.9007V6.56738" stroke="#0169FF" stroke-width="1.5" stroke-linecap="round"/>
<path d="M86.5449 14.0346V4.43457" stroke="#0169FF" stroke-width="1.5" stroke-linecap="round"/>
<path d="M90.1094 15.1015V3.36816" stroke="#0169FF" stroke-width="1.5" stroke-linecap="round"/>
<path d="M93.6729 14.0346V4.43457" stroke="#0169FF" stroke-width="1.5" stroke-linecap="round"/>
<path d="M97.2373 16.1674V2.30078" stroke="#0169FF" stroke-width="1.5" stroke-linecap="round"/>
<path d="M100.802 16.1674V2.30078" stroke="#0169FF" stroke-width="1.5" stroke-linecap="round"/>
<path d="M104.366 15.1015V3.36816" stroke="#0169FF" stroke-width="1.5" stroke-linecap="round"/>
<path d="M107.931 17.2344V1.23438" stroke="#0169FF" stroke-width="1.5" stroke-linecap="round"/>
<path d="M111.495 16.1674V2.30078" stroke="#0169FF" stroke-width="1.5" stroke-linecap="round"/>
<path d="M115.06 15.1015V3.36816" stroke="#0169FF" stroke-width="1.5" stroke-linecap="round"/>
<path d="M118.624 16.1674V2.30078" stroke="#0169FF" stroke-width="1.5" stroke-linecap="round"/>
<path d="M122.188 14.0346V4.43457" stroke="#0169FF" stroke-width="1.5" stroke-linecap="round"/>
<path d="M125.753 10.8348V7.63477" stroke="#0169FF" stroke-width="1.5" stroke-linecap="round"/>
<path d="M129.316 12.9676V5.50098" stroke="#0169FF" stroke-width="1.5" stroke-linecap="round"/>
<path d="M132.881 14.0346V4.43457" stroke="#0169FF" stroke-width="1.5" stroke-linecap="round"/>
<path d="M136.445 12.9676V5.50098" stroke="#0169FF" stroke-width="1.5" stroke-linecap="round"/>
<path d="M140.01 12.9676V5.50098" stroke="#0169FF" stroke-width="1.5" stroke-linecap="round"/>
<path d="M143.574 14.0346V4.43457" stroke="#0169FF" stroke-width="1.5" stroke-linecap="round"/>
<path d="M147.139 15.1015V3.36816" stroke="#0169FF" stroke-width="1.5" stroke-linecap="round"/>
<path d="M150.703 12.9676V5.50098" stroke="#0169FF" stroke-width="1.5" stroke-linecap="round"/>
<path d="M154.268 12.9676V5.50098" stroke="#0169FF" stroke-width="1.5" stroke-linecap="round"/>
<path d="M157.832 14.0346V4.43457" stroke="#0169FF" stroke-width="1.5" stroke-linecap="round"/>
<path d="M161.396 15.1015V3.36816" stroke="#0169FF" stroke-width="1.5" stroke-linecap="round"/>
<path d="M164.96 17.2344V1.23438" stroke="#0169FF" stroke-width="1.5" stroke-linecap="round"/>
<path d="M168.524 16.1674V2.30078" stroke="#0169FF" stroke-width="1.5" stroke-linecap="round"/>
<path d="M172.089 15.1015V3.36816" stroke="#0169FF" stroke-width="1.5" stroke-linecap="round"/>
<path d="M175.653 16.1674V2.30078" stroke="white" stroke-opacity="0.5" stroke-width="1.5" stroke-linecap="round"/>
<path d="M179.218 16.1674V2.30078" stroke="white" stroke-opacity="0.5" stroke-width="1.5" stroke-linecap="round"/>
<path d="M182.782 15.1015V3.36816" stroke="white" stroke-opacity="0.5" stroke-width="1.5" stroke-linecap="round"/>
<path d="M186.347 16.1674V2.30078" stroke="white" stroke-opacity="0.5" stroke-width="1.5" stroke-linecap="round"/>
<path d="M189.911 17.2344V1.23438" stroke="white" stroke-opacity="0.5" stroke-width="1.5" stroke-linecap="round"/>
<path d="M193.476 15.1015V3.36816" stroke="white" stroke-opacity="0.5" stroke-width="1.5" stroke-linecap="round"/>
<path d="M197.04 14.0346V4.43457" stroke="white" stroke-opacity="0.5" stroke-width="1.5" stroke-linecap="round"/>
<path d="M200.604 12.9676V5.50098" stroke="white" stroke-opacity="0.5" stroke-width="1.5" stroke-linecap="round"/>
<path d="M204.168 16.1674V2.30078" stroke="white" stroke-opacity="0.5" stroke-width="1.5" stroke-linecap="round"/>
<path d="M207.732 17.2344V1.23438" stroke="white" stroke-opacity="0.5" stroke-width="1.5" stroke-linecap="round"/>
<path d="M211.297 16.1674V2.30078" stroke="white" stroke-opacity="0.5" stroke-width="1.5" stroke-linecap="round"/>
<path d="M214.861 15.1015V3.36816" stroke="white" stroke-opacity="0.5" stroke-width="1.5" stroke-linecap="round"/>
<path d="M218.426 14.0346V4.43457" stroke="white" stroke-opacity="0.5" stroke-width="1.5" stroke-linecap="round"/>
<path d="M221.99 17.2344V1.23438" stroke="white" stroke-opacity="0.5" stroke-width="1.5" stroke-linecap="round"/>
<path d="M225.555 16.1674V2.30078" stroke="white" stroke-opacity="0.5" stroke-width="1.5" stroke-linecap="round"/>
<path d="M229.119 15.1015V3.36816" stroke="white" stroke-opacity="0.5" stroke-width="1.5" stroke-linecap="round"/>
<path d="M232.684 14.0346V4.43457" stroke="white" stroke-opacity="0.5" stroke-width="1.5" stroke-linecap="round"/>
<path d="M236.247 12.9676V5.50098" stroke="white" stroke-opacity="0.5" stroke-width="1.5" stroke-linecap="round"/>
<path d="M239.812 16.1674V2.30078" stroke="white" stroke-opacity="0.5" stroke-width="1.5" stroke-linecap="round"/>
<path d="M243.376 17.2344V1.23438" stroke="white" stroke-opacity="0.5" stroke-width="1.5" stroke-linecap="round"/>
<path d="M246.94 16.1674V2.30078" stroke="white" stroke-opacity="0.5" stroke-width="1.5" stroke-linecap="round"/>
<path d="M250.505 15.1015V3.36816" stroke="white" stroke-opacity="0.5" stroke-width="1.5" stroke-linecap="round"/>
<path d="M254.069 17.2344V1.23438" stroke="white" stroke-opacity="0.5" stroke-width="1.5" stroke-linecap="round"/>
<path d="M257.634 16.1674V2.30078" stroke="white" stroke-opacity="0.5" stroke-width="1.5" stroke-linecap="round"/>
<path d="M261.198 14.0346V4.43457" stroke="white" stroke-opacity="0.5" stroke-width="1.5" stroke-linecap="round"/>
<path d="M264.763 12.9676V5.50098" stroke="white" stroke-opacity="0.5" stroke-width="1.5" stroke-linecap="round"/>
<path d="M268.327 11.9007V6.56738" stroke="white" stroke-opacity="0.5" stroke-width="1.5" stroke-linecap="round"/>
<path d="M271.891 10.8348V7.63477" stroke="white" stroke-opacity="0.5" stroke-width="1.5" stroke-linecap="round"/>
<path d="M275.455 9.76784V8.70117" stroke="white" stroke-opacity="0.5" stroke-width="1.5" stroke-linecap="round"/>
<path d="M279.02 9.76784V8.70117" stroke="white" stroke-opacity="0.5" stroke-width="1.5" stroke-linecap="round"/>
<path d="M282.584 16.1674V2.30078" stroke="white" stroke-opacity="0.5" stroke-width="1.5" stroke-linecap="round"/>
<path d="M286.148 17.2344V1.23438" stroke="white" stroke-opacity="0.5" stroke-width="1.5" stroke-linecap="round"/>
<path d="M289.713 16.1674V2.30078" stroke="white" stroke-opacity="0.5" stroke-width="1.5" stroke-linecap="round"/>
<path d="M293.277 15.1015V3.36816" stroke="white" stroke-opacity="0.5" stroke-width="1.5" stroke-linecap="round"/>
<path d="M296.842 14.0346V4.43457" stroke="white" stroke-opacity="0.5" stroke-width="1.5" stroke-linecap="round"/>
<path d="M300.406 17.2344V1.23438" stroke="white" stroke-opacity="0.5" stroke-width="1.5" stroke-linecap="round"/>
<path d="M303.971 16.1674V2.30078" stroke="white" stroke-opacity="0.5" stroke-width="1.5" stroke-linecap="round"/>
<path d="M307.534 12.9676V5.50098" stroke="white" stroke-opacity="0.5" stroke-width="1.5" stroke-linecap="round"/>
<path d="M311.099 14.0346V4.43457" stroke="white" stroke-opacity="0.5" stroke-width="1.5" stroke-linecap="round"/>
<path d="M314.663 16.1674V2.30078" stroke="white" stroke-opacity="0.5" stroke-width="1.5" stroke-linecap="round"/>
<path d="M318.228 12.9676V5.50098" stroke="white" stroke-opacity="0.5" stroke-width="1.5" stroke-linecap="round"/>
<path d="M321.792 14.0346V4.43457" stroke="white" stroke-opacity="0.5" stroke-width="1.5" stroke-linecap="round"/>
<path d="M325.356 15.1015V3.36816" stroke="white" stroke-opacity="0.5" stroke-width="1.5" stroke-linecap="round"/>
<path d="M328.921 14.0346V4.43457" stroke="white" stroke-opacity="0.5" stroke-width="1.5" stroke-linecap="round"/>
<path d="M332.485 12.9676V5.50098" stroke="white" stroke-opacity="0.5" stroke-width="1.5" stroke-linecap="round"/>
<path d="M336.05 17.2344V1.23438" stroke="white" stroke-opacity="0.5" stroke-width="1.5" stroke-linecap="round"/>
<path d="M339.614 16.1674V2.30078" stroke="white" stroke-opacity="0.5" stroke-width="1.5" stroke-linecap="round"/>
<path d="M343.178 12.9676V5.50098" stroke="white" stroke-opacity="0.5" stroke-width="1.5" stroke-linecap="round"/>
<path d="M346.742 17.2344V1.23438" stroke="white" stroke-opacity="0.5" stroke-width="1.5" stroke-linecap="round"/>
<path d="M350.307 15.1015V3.36816" stroke="white" stroke-opacity="0.5" stroke-width="1.5" stroke-linecap="round"/>
<path d="M353.871 16.1674V2.30078" stroke="white" stroke-opacity="0.5" stroke-width="1.5" stroke-linecap="round"/>
<path d="M357.436 12.9676V5.50098" stroke="white" stroke-opacity="0.5" stroke-width="1.5" stroke-linecap="round"/>
<path d="M361 10.8348V7.63477" stroke="white" stroke-opacity="0.5" stroke-width="1.5" stroke-linecap="round"/>
</svg>
