<svg width="215" height="68" viewBox="0 0 215 68" fill="none" xmlns="http://www.w3.org/2000/svg">
<rect x="0.5" width="214" height="68" rx="34" fill="#0269FF"/>
<path d="M38.08 41V26.8H43.28C45.66 26.8 47.5 28.66 47.5 30.92C47.5 32 47.06 32.86 46.38 33.46C47.62 34.06 48.48 35.22 48.48 36.82C48.48 39.18 46.6 41 44.08 41H38.08ZM40.98 32.62H43C44 32.62 44.68 31.92 44.68 31.04C44.68 30.18 44 29.44 43 29.44H40.98V32.62ZM40.98 38.34H43.88C44.96 38.34 45.66 37.64 45.66 36.72C45.66 35.8 44.96 35.08 43.88 35.08H40.98V38.34ZM50.7558 41V26.8H56.1958C58.8558 26.8 60.5558 28.64 60.5558 31C60.5558 32.9 59.5158 34.1 57.6358 34.7L62.7358 41H59.2358L54.3758 35.02H53.6558V41H50.7558ZM53.6558 32.54H55.8558C56.9358 32.54 57.6758 31.96 57.6758 31C57.6758 30.02 56.9358 29.46 55.8558 29.46H53.6558V32.54ZM77.252 33.9C77.252 37.96 73.972 41.24 69.912 41.24C65.852 41.24 62.572 37.96 62.572 33.9C62.572 29.84 65.852 26.56 69.912 26.56C73.972 26.56 77.252 29.84 77.252 33.9ZM65.492 33.9C65.492 36.38 67.432 38.44 69.912 38.44C72.392 38.44 74.332 36.38 74.332 33.9C74.332 31.42 72.392 29.36 69.912 29.36C67.432 29.36 65.492 31.42 65.492 33.9ZM90.5877 41L87.4677 33.46L84.3477 41H81.6277L78.2077 26.8H81.2877L83.4477 36.24L87.4677 26.56L91.4877 36.24L93.6477 26.8H96.7277L93.3077 41H90.5877ZM97.4697 38.7L99.6897 36.84C100.39 37.9 101.61 38.52 102.77 38.52C103.91 38.52 104.67 37.96 104.67 37.14C104.67 36.34 104.09 35.78 102.69 35.3L101.49 34.88C99.2097 34.08 97.9897 32.76 97.9897 30.82C97.9897 28.14 100.03 26.56 102.79 26.56C104.53 26.56 106.05 27.16 107.27 28.52L105.35 30.5C104.67 29.68 103.79 29.28 102.81 29.28C101.83 29.28 100.91 29.7 100.91 30.54C100.91 31.4 101.61 31.78 103.11 32.32L104.25 32.74C106.33 33.5 107.63 34.82 107.63 36.96C107.61 39.5 105.59 41.24 102.65 41.24C100.39 41.24 98.4897 40.26 97.4697 38.7ZM109.935 41V26.8H118.775V29.56H112.835V32.48H117.575V35.24H112.835V38.24H118.775V41H109.935ZM130.573 26.8C133.453 26.8 135.553 28.88 135.553 31.58C135.553 34.28 133.453 36.36 130.573 36.36H128.753V41H125.853V26.8H130.573ZM130.533 33.64C131.853 33.64 132.733 32.74 132.733 31.58C132.733 30.42 131.853 29.52 130.533 29.52H128.753V33.64H130.533ZM135.211 41L141.331 26.8H143.911L150.051 41H147.011L145.631 37.76H139.591L138.211 41H135.211ZM140.651 35.22H144.571L142.611 30.6L140.651 35.22ZM150.189 33.9C150.189 29.84 153.469 26.56 157.529 26.56C160.429 26.56 162.869 28.06 164.089 30.34L161.569 31.74C160.729 30.28 159.369 29.36 157.529 29.36C155.049 29.36 153.109 31.42 153.109 33.9C153.109 36.38 155.049 38.44 157.529 38.44C159.369 38.44 160.729 37.52 161.569 36.06L164.089 37.46C162.869 39.74 160.429 41.24 157.529 41.24C153.469 41.24 150.189 37.96 150.189 33.9ZM166.088 41V26.8H168.968V32.8L174.088 26.8H177.668L171.828 33.62L178.888 41H175.128L168.968 34.54V41H166.088Z" fill="white"/>
</svg>
